<?xml version="1.0" standalone="no"?>
<!DOCTYPE svg PUBLIC "-//W3C//DTD SVG 20010904//EN"
 "http://www.w3.org/TR/2001/REC-SVG-20010904/DTD/svg10.dtd">
<svg version="1.0" xmlns="http://www.w3.org/2000/svg"
 width="230.000000pt" height="224.000000pt" viewBox="0 0 230.000000 224.000000"
 preserveAspectRatio="xMidYMid meet">
<metadata>
Created by potrace 1.10, written by Peter Selinger 2001-2011
</metadata>
<g transform="translate(0.000000,224.000000) scale(0.050000,-0.050000)"
fill="#741b47" stroke="none">
<path d="M1857 4120 c-422 -78 -808 -299 -1117 -637 -77 -84 -140 -159 -140
-167 0 -23 229 -119 236 -98 15 45 123 163 262 286 669 594 1758 543 2377
-111 80 -84 145 -162 145 -173 0 -32 46 -23 100 20 28 22 65 39 84 40 70 0 56
46 -57 174 -483 550 -1185 798 -1890 666z"/>
<path d="M1990 3598 c-66 -9 -154 -31 -195 -48 -209 -84 -253 -106 -362 -176
-121 -78 -333 -267 -333 -296 0 -17 82 -64 167 -97 41 -15 62 -3 159 90 247
236 634 349 995 289 82 -13 158 -31 169 -38 11 -8 74 -35 140 -61 140 -55 289
-157 358 -246 l49 -63 112 56 c136 70 139 52 -34 215 -315 296 -780 439 -1225
375z"/>
<path d="M832 3127 c-7 -24 -11 -51 -8 -60 2 -9 -7 -38 -22 -65 -43 -78 -55
-282 -16 -282 18 0 42 30 57 70 14 39 31 70 38 70 8 0 9 21 4 48 -5 26 1 53
13 61 29 18 28 91 0 91 -16 0 -15 9 2 30 20 24 19 30 -6 30 -17 0 -35 11 -39
25 -5 14 -15 7 -23 -18z"/>
<path d="M3540 3099 c0 -12 -7 -17 -16 -11 -38 23 0 -218 47 -311 67 -129 81
-24 37 268 -10 67 -68 113 -68 54z"/>
<path d="M1969 3042 c-226 -82 -457 -242 -348 -242 11 0 58 -18 104 -40 91
-44 146 -51 165 -20 81 131 478 139 667 14 l72 -48 115 52 c137 62 137 72 -15
163 -254 152 -544 198 -760 121z"/>
<path d="M1060 2046 l0 -816 415 -207 c436 -218 657 -351 701 -424 34 -55 15
-75 -32 -32 -21 18 -43 33 -51 33 -7 0 -52 18 -98 39 -47 21 -184 79 -305 128
-266 108 -636 259 -726 298 l-66 28 2 743 1 743 -73 31 c-40 16 -76 30 -80 30
-5 0 -8 -372 -8 -826 l0 -826 95 -33 c107 -37 495 -182 735 -275 88 -35 214
-82 280 -104 66 -23 154 -72 195 -109 115 -102 330 -89 400 25 13 21 188 94
575 237 270 101 394 148 523 199 74 28 141 52 150 52 10 0 18 374 20 830 2
457 -2 830 -10 829 -7 0 -43 -16 -80 -35 l-66 -34 2 -742 2 -743 -116 -46
c-63 -25 -153 -62 -199 -82 -46 -20 -89 -37 -95 -37 -11 0 -521 -207 -701
-285 -55 -24 -116 -56 -135 -72 -50 -42 -64 -16 -24 45 48 74 260 200 714 424
l395 195 0 818 c0 450 -7 815 -15 812 -603 -271 -1105 -583 -1105 -687 0 -81
-58 -68 -116 26 -87 142 -478 379 -1089 660 -8 4 -15 -360 -15 -810z m512 391
c456 -233 573 -314 644 -447 20 -38 22 -38 41 12 41 108 523 408 988 615 8 3
15 -285 15 -642 l0 -648 -394 -198 c-434 -219 -500 -265 -579 -412 l-54 -98
-58 100 c-83 144 -147 189 -584 409 l-391 197 0 647 c0 357 3 648 7 648 3 0
168 -82 365 -183z"/>
<path d="M2245 1770 c-83 -83 -89 -96 -80 -169 10 -75 7 -80 -52 -100 -146
-49 -180 -300 -40 -301 128 0 310 203 200 224 -55 11 -113 -14 -113 -49 0 -17
6 -17 24 1 41 41 101 31 78 -12 -31 -58 -180 -119 -203 -83 -45 70 57 188 180
209 85 14 114 64 36 62 -74 -3 -71 89 6 176 80 91 129 96 112 12 -10 -51 -6
-60 29 -60 22 0 35 9 28 20 -6 10 -2 37 9 58 64 120 -97 129 -214 12z"/>
</g>
</svg>
